<svg width="512" height="512" viewBox="0 0 512 512" fill="none" xmlns="http://www.w3.org/2000/svg">
<path d="M394.722 62.9262C394.63 61.9306 393.854 61.1271 392.858 61.0062C392.246 60.928 377.651 59.2426 363.583 68.5084C350.199 77.3191 343.851 87.1111 339.183 99.5058C339.084 99.6266 338.998 99.7546 338.927 99.8969C336.828 104.192 332.53 108.501 328.375 112.668C325.799 115.25 323.144 117.916 320.917 120.647C314.698 128.277 312.229 138.652 312.129 139.086C311.859 140.231 312.578 141.376 313.723 141.646C313.887 141.682 314.05 141.703 314.214 141.703C315.182 141.703 316.057 141.042 316.292 140.053C316.313 139.954 318.654 130.19 324.24 123.335C326.332 120.768 328.915 118.18 331.413 115.669C332.715 114.361 334.039 113.038 335.305 111.694C333.64 117.98 332.495 124.089 331.37 130.048C330.936 132.359 330.509 134.649 330.054 136.932C328.054 146.916 324.134 155.328 319.003 160.612C318.185 161.458 318.199 162.809 319.046 163.627C319.893 164.444 321.245 164.43 322.063 163.577C327.756 157.71 332.082 148.544 334.238 137.764C334.701 135.467 335.135 133.156 335.569 130.83C337.056 122.894 338.6 114.688 341.347 106.261C346.086 91.7333 351.629 81.4791 365.939 72.0569C371.767 68.2169 377.772 66.4604 382.583 65.6853C372.443 72.2773 362.957 83.1929 358.666 90.3395C352.611 100.43 349.131 121.941 348.968 130.652C348.939 131.975 348.918 133.461 348.896 135.061C348.768 144.064 348.576 157.668 347.295 164.786C345.758 173.326 341.468 179.954 333.391 186.268C328.218 190.315 318.156 195.47 303.484 201.593C291.771 206.478 273.64 216.078 261.059 227.044C252.179 234.78 235.378 250.631 227.523 260.053C220.144 268.9 211.626 281.152 210.929 282.155C209.883 283.449 209.164 283.897 208.744 284.039C208.509 284.117 208.075 284.267 207.186 283.563C205.578 282.283 205.706 278.464 205.791 275.684L205.805 275.179C205.912 271.737 207.271 269.54 209.15 266.496L209.463 265.991C211.455 262.748 222.734 246.542 222.848 246.379C223.524 245.412 223.282 244.082 222.314 243.406C221.346 242.738 220.016 242.972 219.34 243.94C218.87 244.608 207.883 260.409 205.827 263.751L205.521 264.249C205.222 264.732 204.93 265.209 204.645 265.685C202.895 263.737 200.76 261.006 200.241 258.958C199.337 255.445 201.877 251.321 201.899 251.285L201.977 251.15C206.816 242.098 221.46 224.021 221.602 223.844C222.342 222.926 222.207 221.582 221.289 220.843C220.371 220.103 219.026 220.238 218.286 221.156C217.767 221.796 207.307 234.716 201.066 244.366C197.893 237.98 202.183 230.407 206.609 223.673C210.409 217.892 215.91 211.157 219.219 207.239C220.201 210.873 222.164 214.827 225.957 218.02C225.957 218.02 227.622 219.94 229.415 219.428C231.209 218.916 230.184 215.972 229.159 214.308C228.135 212.644 223.908 203.556 228.775 194.212C228.775 194.212 229.287 192.548 231.337 192.676C233.386 192.804 233.002 194.852 232.618 196.26C232.233 197.668 230.696 204.196 232.105 209.444C232.895 212.388 235.144 215.858 238.431 218.496C233.713 224.036 228.234 231.353 227.964 231.716C227.259 232.661 227.451 233.998 228.398 234.702C228.782 234.987 229.23 235.129 229.672 235.129C230.319 235.129 230.967 234.83 231.387 234.276C231.458 234.183 237.342 226.318 242.074 220.814C243.832 221.675 245.775 222.279 247.867 222.5C247.867 222.5 250.813 222.884 251.581 221.22C252.179 219.918 252.093 217.892 249.788 215.972C247.482 214.052 243.512 210.212 243.768 200.484C243.768 200.484 243.896 198.436 245.689 198.308C247.482 198.18 247.995 199.46 248.123 200.612C248.251 201.764 249.788 214.82 264.005 216.1C264.005 216.1 266.439 215.972 266.823 213.924C267.207 211.876 266.951 208.292 266.951 208.292C266.951 208.292 280.016 211.108 287.188 205.86C287.188 205.86 288.213 204.452 287.701 203.428C287.188 202.404 285.011 201.892 283.602 201.636C282.193 201.38 277.198 200.228 274.636 196.26C272.075 192.292 271.434 189.86 271.69 184.996C271.69 184.996 271.946 183.332 273.612 183.076C275.277 182.82 276.045 184.74 276.557 186.276C277.07 187.812 280.144 195.108 284.883 196.516C289.622 197.924 293.593 196.388 295.13 195.364C296.667 194.34 297.307 192.036 295.258 190.628C293.208 189.22 291.415 187.684 290.647 186.148C289.878 184.612 289.878 183.716 291.671 182.948C293.465 182.18 296.282 180.9 298.972 178.34C301.662 175.78 301.918 173.604 300.125 172.196C298.332 170.788 296.411 168.356 296.411 168.356C296.411 168.356 308.579 165.156 309.219 152.74C309.219 152.74 309.219 148.644 305.853 149.689C305.305 149.86 304.786 150.151 304.352 150.528C302.865 151.829 301.043 151.218 299.221 149.54C297.556 148.004 292.177 143.268 285.516 143.908C279.809 144.455 274.757 148.11 271.413 151.801C270.523 152.782 269.029 152.896 268.026 152.028C266.987 151.132 266.894 149.568 267.826 148.558C269.726 146.503 272.943 143.317 275.782 141.988C280.137 139.94 282.955 139.684 286.669 140.068C290.383 140.452 294.098 138.276 294.61 134.436C295.123 130.596 295.251 127.012 293.457 125.476C291.664 123.94 290.127 125.604 288.206 127.78C286.285 129.956 282.826 132.26 279.368 130.084C275.91 127.908 271.811 125.988 265.919 127.268C260.39 128.469 255.545 134.286 254.328 143.239C254.185 144.292 253.332 145.109 252.264 145.166C250.919 145.244 249.809 144.114 249.93 142.77C250.172 140.096 250.784 135.879 252.335 133.02C254.769 128.54 258.74 125.724 261.686 124.444C264.631 123.164 266.553 121.372 266.809 117.916C267.065 114.46 266.168 111.388 264.631 110.364C263.094 109.34 261.173 110.492 260.277 112.156C259.38 113.82 256.05 117.404 251.183 119.196C246.315 120.988 241.448 123.42 238.63 127.644C236.261 131.2 235.613 138.56 235.464 143.019C235.421 144.228 234.432 145.18 233.222 145.18C232.048 145.18 231.073 144.284 230.988 143.111C230.796 140.516 230.689 135.666 231.714 129.721C231.998 128.064 229.857 127.154 228.839 128.484C227.679 130.005 226.427 131.804 225.31 133.781C221.979 139.669 219.802 146.837 220.186 151.317C220.507 155.065 222.805 158.272 224.968 159.893V174.08C221.837 174.848 219.667 176.74 218.607 177.863C214.458 178.034 210.687 179.876 208.758 180.992C197.345 172.956 181.391 173.291 175.57 173.732C174.581 167.431 170.312 162.375 165.765 157.831C162.2 154.268 157.432 149.66 154.721 147.051C156.799 143.516 158.791 135.239 156.657 130.197C154.223 124.437 148.844 123.925 148.844 123.925H144.097L144.311 119.474C146.346 119.46 150.445 119.225 154.871 117.781C161.147 115.733 164.989 111.381 166.142 107.669C167.295 103.957 167.935 102.549 169.984 100.245C172.034 97.9413 173.443 96.1493 172.29 90.9013C171.137 85.6533 172.546 79.7653 175.492 77.3333C178.438 74.9013 181.768 74.5173 184.714 75.1573C187.66 75.7973 193.04 76.4373 195.857 73.2373C198.675 70.0373 200.725 68.1173 203.671 66.4533C206.617 64.7893 208.41 63.6373 207.769 61.5893C207.129 59.5413 202.518 59.7973 197.651 60.8213C192.783 61.8453 187.66 63.6373 182.793 62.6133C177.926 61.5893 172.162 59.1573 166.398 60.3093C160.634 61.4613 157.688 67.4773 156.792 71.1893C155.895 74.9013 155.511 81.5573 150.772 82.4533C146.033 83.3493 143.215 80.6613 141.934 77.7173C140.653 74.7733 141.294 72.4693 142.831 70.5493C144.368 68.6293 145.008 62.7413 140.525 61.0773C136.042 59.4133 125.924 64.5333 120.8 69.2693C115.677 74.0053 113.115 79.5093 112.219 82.5813C111.322 85.6533 111.578 89.8773 112.475 91.6693C113.371 93.4613 114.14 95.3813 113.499 97.8133C112.859 100.245 112.603 107.925 116.317 112.533C119.655 116.672 124.429 118.329 127.873 118.528L128.044 123.669H126.777C122.351 123.669 118.751 127.097 118.751 131.307C118.751 133.468 119.704 135.417 121.22 136.804C119.697 138.133 118.751 139.996 118.751 142.059C118.751 144.121 119.704 145.984 121.22 147.314C119.697 148.651 118.751 150.521 118.751 152.597C118.751 156.644 122.351 159.936 126.777 159.936H129.247L129.553 169.088C129.666 172.452 132.385 175.083 135.75 175.083C139.066 175.083 141.785 172.487 141.948 169.18L142.076 166.556C143.414 170.752 146.367 180.018 147.733 184.007C149.619 189.525 152.643 195.236 160.713 196.124C162.726 198.087 169.721 204.75 176.012 208.789C178.296 210.254 180.502 211.534 182.636 212.772C187.126 215.374 190.997 217.621 193.502 220.444C196.555 223.886 198.248 227.449 198.725 228.544C195.708 234.532 193.765 241.892 198.583 248.455C198.469 248.661 198.348 248.875 198.241 249.074C197.807 249.785 194.804 254.976 196.106 260.011C197.046 263.659 200.746 267.819 202.596 269.739C202.005 271.303 201.607 273.017 201.543 275.036L201.529 275.534C201.408 279.218 201.244 284.267 204.524 286.884C205.933 288.007 207.257 288.363 208.374 288.363C208.495 288.363 208.602 288.356 208.716 288.348V305.998C206.446 307.25 203.763 310.009 202.141 312.484C199.963 315.812 201.756 321.188 203.422 322.98C205.087 324.772 204.318 327.076 204.062 330.148C203.806 333.22 203.934 336.804 205.727 340.388C207.52 343.972 213.028 348.58 217.895 348.58C222.762 348.58 234.034 346.532 242.743 343.716C251.453 340.9 267.335 333.092 274.124 326.564C280.912 320.036 288.213 309.284 288.854 304.676C289.494 300.068 288.469 295.844 285.395 294.18C283.652 293.234 282.2 293.241 281.268 293.419V284.949C284.847 281.124 295.144 271.417 308.82 269.511C310.35 272.313 312.57 275.036 315.787 277.22C315.395 281.884 315.239 297.017 327.421 310.82C326.788 312.647 325.429 316.302 323.778 319.076C321.586 322.759 320.924 329.188 322.355 332.828C323.216 335.033 324.625 335.858 325.649 336.156C327.229 336.626 328.809 336.334 330.104 335.339C331.57 334.208 332.488 332.345 332.993 330.368C333.598 331.25 334.053 332.238 334.117 333.22C334.352 336.988 334.708 342.684 339.874 342.898C339.938 342.898 340.002 342.905 340.073 342.905C344.727 342.905 348.071 335.979 348.626 329.166C349.16 322.61 347.253 316.985 345.524 312.818C344.577 310.535 344.826 308.181 345.239 304.277C345.381 302.905 345.545 301.348 345.68 299.577C346.2 292.601 346.982 282.062 345.531 272.604C344.712 267.257 342.457 261.71 339.411 257.124C342.535 254.635 351.714 246.94 360.324 235.975C370.913 222.492 378.939 196.722 378.939 178.631C378.939 178.631 379.281 175.516 377.488 174.62C375.694 173.724 373.901 176.028 373.005 177.82C372.108 179.612 368.906 183.196 364.551 186.268C360.196 189.34 358.531 189.084 357.25 187.42C355.97 185.756 356.866 177.18 359.044 170.396C361.221 163.612 365.192 159.516 368.522 157.724C371.852 155.932 373.666 152.718 374.286 149.148C374.926 145.436 375.823 135.196 372.364 129.692C369.739 125.511 364.551 120.476 361.99 114.332C359.876 109.255 358.375 103.388 360.161 96.96C360.851 95.2818 361.57 93.7813 362.324 92.5227C367.803 83.392 381.601 68.7929 393.242 65.1306C394.196 64.8533 394.815 63.9218 394.722 62.9262ZM233.799 172.395C232.852 173.696 231.18 174.635 229.245 174.997V166.464C231.066 166.805 233.671 167.673 234.325 169.479C234.759 170.688 234.276 171.733 233.799 172.395ZM233.386 154.809C237.1 153.657 240.815 158.265 240.815 158.265C240.815 158.265 244.786 154.169 249.012 154.169C253.239 154.169 257.21 158.905 257.85 165.049C258.491 171.193 253.751 175.929 252.214 176.953C252.214 176.953 249.653 173.881 247.091 173.753C244.529 173.625 243.12 175.289 242.096 176.825C241.107 178.304 237.506 179.534 235.983 176.292C236.453 175.858 236.887 175.403 237.257 174.898C238.766 172.814 239.164 170.311 238.339 168.036C236.78 163.712 231.6 162.482 229.245 162.14V158.983C229.828 157.575 231.052 155.534 233.386 154.809ZM131.901 111.161C131.901 108.807 133.815 106.894 136.17 106.894C138.511 106.894 140.418 108.786 140.44 111.118L139.842 123.705H132.321L131.901 111.161ZM123.02 152.633C123.02 151.687 123.554 150.841 124.379 150.279C125.326 149.639 125.838 148.516 125.838 147.371V147.321C125.838 146.169 125.319 145.045 124.358 144.398C123.54 143.844 123.02 143.019 123.02 142.094C123.02 141.156 123.554 140.324 124.387 139.769C125.255 139.193 125.838 138.268 125.838 137.223V136.619C125.838 135.538 125.262 134.571 124.387 133.931C123.554 133.312 123.02 132.388 123.02 131.342C123.02 129.486 124.707 127.972 126.777 127.972H141.251C143.322 127.972 145.008 129.486 145.008 131.342C145.008 133.177 143.364 134.677 141.322 134.713C141.109 134.72 140.895 134.756 140.696 134.82C140.625 134.812 140.561 134.798 140.482 134.798H132.271C131.026 134.798 130.015 135.751 130.015 136.932C130.015 138.112 131.026 139.065 132.271 139.065H140.482C140.618 139.065 140.746 139.051 140.874 139.029C140.995 139.051 141.116 139.065 141.244 139.065C143.315 139.065 145.001 140.423 145.001 142.094C145.001 143.765 143.315 145.124 141.244 145.124C141.045 145.124 140.853 145.159 140.667 145.216C140.653 145.216 140.639 145.209 140.625 145.209H132.306C131.047 145.209 130.022 146.162 130.022 147.342C130.022 148.523 131.047 149.476 132.306 149.476H140.625C140.646 149.476 140.667 149.468 140.689 149.468C140.874 149.518 141.066 149.561 141.265 149.561C143.329 149.568 145.001 150.94 145.001 152.633C145.001 154.325 143.315 155.705 141.244 155.705H126.777C124.707 155.705 123.02 154.325 123.02 152.633ZM135.75 170.852C134.704 170.852 133.851 170.034 133.822 168.981L133.523 159.972H138.113L137.679 169.01C137.629 170.041 136.782 170.852 135.75 170.852ZM196.69 217.65C193.73 214.315 189.581 211.904 184.771 209.116C182.679 207.9 180.516 206.649 178.317 205.234C171.422 200.804 163.253 192.676 163.175 192.59L162.605 192.021L161.808 191.964C155.938 191.566 153.682 188.245 151.775 182.649C151.37 181.454 150.815 179.769 150.203 177.892C149.029 169.977 149.954 164.494 151.298 161.188C152.43 158.4 155.169 156.146 156.799 154.994C158.813 156.956 160.947 159.047 162.769 160.868C167.231 165.326 171.379 170.261 171.536 176.142L171.6 178.51L173.948 178.197C174.154 178.169 194.918 175.552 207.364 185.273L208.616 186.247L209.911 185.337C209.947 185.316 212.302 183.694 215.362 182.77C214.558 184.789 211.946 189.106 207.115 191.531C205.457 192.363 205.613 194.78 207.378 195.371C210.274 196.338 214.188 197.141 218.543 196.651C218.543 196.651 218.187 198.713 218.35 201.714C216.244 204.132 208.253 213.426 203.051 221.333C202.504 222.165 201.892 223.097 201.265 224.1C200.248 222.315 198.739 219.968 196.69 217.65ZM341.411 299.292C341.283 300.992 341.126 302.514 340.984 303.858C340.535 308.117 340.208 311.189 341.567 314.475C343.111 318.201 344.819 323.193 344.357 328.846C343.851 335.012 341.14 338.667 340.059 338.667C340.052 338.667 340.044 338.667 340.037 338.667C339.048 338.624 338.628 337.195 338.365 332.985C338.052 328.028 333.171 324.366 332.616 323.961C331.961 323.484 331.086 323.428 330.367 323.804C329.648 324.181 329.207 324.942 329.236 325.753C329.321 328.704 328.396 331.292 327.485 331.989C327.3 332.132 327.158 332.188 326.852 332.096C326.781 332.075 326.553 331.89 326.318 331.3C325.365 328.875 325.934 323.812 327.435 321.28C329.968 317.02 331.79 311.211 331.861 310.969C332.089 310.236 331.911 309.447 331.385 308.885C317.587 294.016 320.12 276.665 320.142 276.501C320.284 275.634 319.878 274.773 319.124 274.325C308.799 268.203 309.774 254.841 309.788 254.713C309.881 253.618 309.134 252.636 308.059 252.43C289.764 248.981 289.188 235.961 289.174 235.406C289.145 234.247 288.199 233.323 287.039 233.323C287.025 233.323 287.018 233.323 287.003 233.323C285.822 233.344 284.883 234.311 284.904 235.492C284.904 235.591 285.096 241.344 289.551 246.94C289.544 246.99 289.53 247.033 289.522 247.083C287.615 268.551 269.677 277.063 268.901 277.419C267.834 277.909 267.357 279.175 267.848 280.242C268.204 281.024 268.979 281.486 269.79 281.486C270.089 281.486 270.388 281.422 270.68 281.294C270.972 281.159 273.455 279.993 276.693 277.589V296.092C264.311 308.366 250.044 310.699 238.111 309.945C225.943 309.177 218.514 306.745 215.824 305.977C214.771 305.678 213.782 305.515 212.964 305.429V286.244C213.398 285.824 213.839 285.34 214.287 284.779C214.316 284.736 214.351 284.7 214.38 284.658C214.437 284.58 217.931 279.524 222.392 273.543C224.456 271.211 230.526 264.462 237.527 257.593H261.216C261.259 257.593 261.315 257.593 261.394 257.593C263.265 257.593 274.779 256.939 280.998 241.223C281.432 240.128 280.891 238.891 279.795 238.457C278.699 238.023 277.461 238.564 277.027 239.659C271.562 253.483 261.757 253.348 261.351 253.326C261.323 253.326 261.287 253.326 261.251 253.326H241.996C243.291 252.132 244.586 250.951 245.881 249.828C257.665 239.588 275.255 227.129 287.039 220.814C298.823 214.5 306.679 210.745 315.047 211.769C323.294 212.779 329.043 225.557 330.033 251.726C329.983 252.025 329.99 252.338 330.068 252.629C330.068 252.722 330.075 252.807 330.075 252.9L330.189 252.971C330.317 253.255 330.509 253.525 330.765 253.739C335.839 257.906 340.158 265.941 341.283 273.28C342.67 282.254 341.916 292.508 341.411 299.292Z" fill="url(#paint0_linear_34_197)"/>
<path d="M216.991 64.9529C218.898 64.9529 220.45 63.8933 220.45 62.5849C220.45 61.2764 218.898 60.2169 216.991 60.2169C215.084 60.2169 213.533 61.2764 213.533 62.5849C213.533 63.8933 215.084 64.9529 216.991 64.9529Z" fill="url(#paint1_linear_34_197)"/>
<path d="M232.952 287.14C233.144 286.628 233.13 286.066 232.916 285.561C230.497 279.851 233.137 273.102 233.187 272.981C233.628 271.893 233.101 270.649 232.013 270.201C230.924 269.76 229.679 270.279 229.23 271.374C229.102 271.68 226.477 278.286 228.234 284.992C224.456 285.07 221.225 284.544 221.183 284.537C220.023 284.345 218.92 285.127 218.728 286.293C218.535 287.46 219.318 288.555 220.485 288.747C220.642 288.775 223.666 289.266 227.452 289.266C227.665 289.266 227.893 289.259 228.106 289.252C227.679 292.16 227.572 296.526 229.33 301.326C229.65 302.187 230.461 302.727 231.337 302.727C231.579 302.727 231.828 302.684 232.07 302.599C233.18 302.194 233.742 300.971 233.336 299.861C230.846 293.077 232.931 287.189 232.952 287.14Z" fill="url(#paint2_linear_34_197)"/>
<path d="M244.579 265.408C243.526 264.889 242.252 265.323 241.726 266.375C241.199 267.428 241.633 268.708 242.686 269.234C242.772 269.276 251.389 273.678 255.616 284.124C255.95 284.956 256.754 285.461 257.594 285.461C257.864 285.461 258.135 285.411 258.391 285.305C259.487 284.864 260.013 283.62 259.572 282.524C254.712 270.514 244.992 265.607 244.579 265.408Z" fill="url(#paint3_linear_34_197)"/>
<path d="M245.518 285.326C242.644 285.902 239.072 285.675 239.036 285.675C237.855 285.589 236.844 286.485 236.766 287.659C236.688 288.832 237.577 289.849 238.751 289.927C238.823 289.934 239.619 289.984 240.772 289.984C242.281 289.984 244.408 289.899 246.358 289.508C247.518 289.273 248.265 288.149 248.03 286.997C247.803 285.845 246.671 285.092 245.518 285.326Z" fill="url(#paint4_linear_34_197)"/>
<path d="M259.643 249.316C261.577 249.316 263.144 248.208 263.144 246.841C263.144 245.474 261.577 244.366 259.643 244.366C257.71 244.366 256.142 245.474 256.142 246.841C256.142 248.208 257.71 249.316 259.643 249.316Z" fill="url(#paint5_linear_34_197)"/>
<path d="M242.992 168.334C243.156 168.334 243.327 168.313 243.498 168.27L248.237 167.118C249.382 166.841 250.087 165.689 249.809 164.544C249.532 163.399 248.372 162.695 247.233 162.972L242.494 164.124C241.349 164.402 240.644 165.554 240.922 166.699C241.156 167.68 242.032 168.334 242.992 168.334Z" fill="url(#paint6_linear_34_197)"/>
<path d="M312.414 172.601C313.759 172.601 314.847 171.513 314.847 170.169C314.847 168.825 313.759 167.737 312.414 167.737C311.069 167.737 309.98 168.825 309.98 170.169C309.98 171.513 311.069 172.601 312.414 172.601Z" fill="url(#paint7_linear_34_197)"/>
<path d="M396.437 401.65H331.755C322.12 401.65 314.278 393.813 314.278 384.185C314.278 374.556 322.12 366.72 331.755 366.72H396.437V358.898H331.755C317.8 358.898 306.451 370.24 306.451 384.185C306.451 398.13 317.8 409.472 331.755 409.472H396.437V401.65Z" fill="url(#paint8_linear_34_197)"/>
<path d="M194.249 358.457V397.241C194.249 399.673 192.271 401.65 189.837 401.65H124.515C122.081 401.65 120.103 399.673 120.103 397.241V358.457H112.276V397.241C112.276 403.982 117.769 409.472 124.515 409.472H189.837C196.583 409.472 202.077 403.982 202.077 397.241V358.457H194.249Z" fill="url(#paint9_linear_34_197)"/>
<path d="M292.803 381.07C294.39 378.759 295.322 375.95 295.322 372.921C295.322 364.992 288.91 358.542 281.033 358.542H210.9L210.9 366.421H281.033C284.598 366.421 287.494 369.337 287.494 372.921C287.494 376.505 284.598 379.42 281.033 379.42L210.9 379.428V409.465H286.669C294.546 409.465 300.957 403.015 300.957 395.086V394.055C300.957 388.338 297.62 383.388 292.803 381.07ZM293.13 395.093C293.13 398.684 290.234 401.593 286.669 401.593H218.728V387.556H286.669C290.234 387.556 293.13 390.471 293.13 394.055V395.093Z" fill="url(#paint10_linear_34_197)"/>
<path d="M168.447 421.248H112.091V426.226H137.522V452.153H142.503V426.226H168.447V421.248Z" fill="url(#paint11_linear_34_197)"/>
<path d="M237.1 421.248H180.744V426.226H206.175V452.153H211.156V426.226H237.1V421.248Z" fill="url(#paint12_linear_34_197)"/>
<path d="M176.83 421.049H171.849V452.281H176.83V421.049Z" fill="url(#paint13_linear_34_197)"/>
<path d="M230.504 447.41L247.724 428.814L269.278 452.281H276.038L247.739 421.476L219.105 452.388H262.461L258.106 447.41H230.504Z" fill="url(#paint14_linear_34_197)"/>
<path d="M284.548 452.409H279.567V420.885L330.801 444.309V421.433H335.782V452.06L284.548 428.636V452.409Z" fill="url(#paint15_linear_34_197)"/>
<path d="M386.354 434.304L349.814 434.425C347.445 434.425 345.516 432.583 345.516 430.322C345.516 428.06 347.445 426.219 349.814 426.219H396.053V421.241H349.814C344.698 421.241 340.535 425.316 340.535 430.322C340.535 435.328 344.698 439.403 349.821 439.403L386.361 439.282C388.731 439.282 390.659 441.124 390.659 443.385C390.659 445.646 388.731 447.488 386.361 447.488H339.824V452.466H386.361C391.477 452.466 395.64 448.391 395.64 443.385C395.64 438.379 391.477 434.304 386.354 434.304Z" fill="url(#paint16_linear_34_197)"/>
<path d="M113.649 435.755C60.5296 393.927 26.3596 329.031 26.3596 256.306C26.3596 186.66 57.7046 124.21 107.017 82.304C107.102 81.92 107.195 81.5431 107.302 81.1733C107.65 79.9787 108.646 77.0489 110.781 73.5431C103.616 79.2107 96.7275 85.3191 90.1668 91.8755C46.2696 135.794 22.0902 194.19 22.0902 256.299C22.0902 318.407 46.2696 376.804 90.1668 420.722C101.581 432.142 113.976 442.212 127.155 450.88C122.892 446.364 117.498 440.206 113.649 435.755Z" fill="url(#paint17_linear_34_197)"/>
<path d="M418.873 91.8898C411.039 84.0462 402.734 76.8498 394.032 70.2933C392.566 70.8196 391.057 71.5449 389.528 72.4196C445.977 114.012 482.68 180.949 482.68 256.313C482.68 325.732 451.534 388.011 402.5 429.909V435.648C408.15 430.962 413.622 425.998 418.873 420.743C462.77 376.825 486.95 318.428 486.95 256.32C486.95 194.212 462.77 135.808 418.873 91.8898Z" fill="url(#paint18_linear_34_197)"/>
<path d="M359.905 458.724C328.36 475.228 292.518 484.58 254.52 484.58C216.522 484.58 180.68 475.228 149.135 458.724H139.906C174.467 478.379 213.69 488.846 254.52 488.846C295.35 488.846 334.572 478.379 369.134 458.724H359.905Z" fill="url(#paint19_linear_34_197)"/>
<path d="M138.483 55.6729C139.878 55.6729 141.166 55.8862 142.311 56.3129C142.76 56.4835 143.186 56.6827 143.599 56.896C176.453 38.528 214.28 28.0462 254.52 28.0462C296.603 28.0462 336.045 39.5164 369.924 59.4773C371.809 58.7306 373.652 58.1191 375.424 57.6355C339.368 35.584 297.848 23.7867 254.52 23.7867C212.395 23.7867 171.991 34.9369 136.647 55.808C137.28 55.7227 137.892 55.6729 138.483 55.6729Z" fill="url(#paint20_linear_34_197)"/>
<defs>
<linearGradient id="paint0_linear_34_197" x1="19.1015" y1="41.6269" x2="494.047" y2="41.6269" gradientUnits="userSpaceOnUse">
<stop stop-color="#9F7A05"/>
<stop offset="1" stop-color="#FFF57C"/>
</linearGradient>
<linearGradient id="paint1_linear_34_197" x1="19.1015" y1="41.6269" x2="494.047" y2="41.6269" gradientUnits="userSpaceOnUse">
<stop stop-color="#9F7A05"/>
<stop offset="1" stop-color="#FFF57C"/>
</linearGradient>
<linearGradient id="paint2_linear_34_197" x1="19.1015" y1="41.6269" x2="494.047" y2="41.6269" gradientUnits="userSpaceOnUse">
<stop stop-color="#9F7A05"/>
<stop offset="1" stop-color="#FFF57C"/>
</linearGradient>
<linearGradient id="paint3_linear_34_197" x1="19.1015" y1="41.6269" x2="494.047" y2="41.6269" gradientUnits="userSpaceOnUse">
<stop stop-color="#9F7A05"/>
<stop offset="1" stop-color="#FFF57C"/>
</linearGradient>
<linearGradient id="paint4_linear_34_197" x1="19.1015" y1="41.6269" x2="494.047" y2="41.6269" gradientUnits="userSpaceOnUse">
<stop stop-color="#9F7A05"/>
<stop offset="1" stop-color="#FFF57C"/>
</linearGradient>
<linearGradient id="paint5_linear_34_197" x1="19.1015" y1="41.6269" x2="494.047" y2="41.6269" gradientUnits="userSpaceOnUse">
<stop stop-color="#9F7A05"/>
<stop offset="1" stop-color="#FFF57C"/>
</linearGradient>
<linearGradient id="paint6_linear_34_197" x1="19.1015" y1="41.6269" x2="494.047" y2="41.6269" gradientUnits="userSpaceOnUse">
<stop stop-color="#9F7A05"/>
<stop offset="1" stop-color="#FFF57C"/>
</linearGradient>
<linearGradient id="paint7_linear_34_197" x1="19.1015" y1="41.6269" x2="494.047" y2="41.6269" gradientUnits="userSpaceOnUse">
<stop stop-color="#9F7A05"/>
<stop offset="1" stop-color="#FFF57C"/>
</linearGradient>
<linearGradient id="paint8_linear_34_197" x1="19.1015" y1="41.6269" x2="494.047" y2="41.6269" gradientUnits="userSpaceOnUse">
<stop stop-color="#9F7A05"/>
<stop offset="1" stop-color="#FFF57C"/>
</linearGradient>
<linearGradient id="paint9_linear_34_197" x1="19.1015" y1="41.6269" x2="494.047" y2="41.6269" gradientUnits="userSpaceOnUse">
<stop stop-color="#9F7A05"/>
<stop offset="1" stop-color="#FFF57C"/>
</linearGradient>
<linearGradient id="paint10_linear_34_197" x1="19.1015" y1="41.6269" x2="494.047" y2="41.6269" gradientUnits="userSpaceOnUse">
<stop stop-color="#9F7A05"/>
<stop offset="1" stop-color="#FFF57C"/>
</linearGradient>
<linearGradient id="paint11_linear_34_197" x1="19.1015" y1="41.6269" x2="494.047" y2="41.6269" gradientUnits="userSpaceOnUse">
<stop stop-color="#9F7A05"/>
<stop offset="1" stop-color="#FFF57C"/>
</linearGradient>
<linearGradient id="paint12_linear_34_197" x1="19.1015" y1="41.6269" x2="494.047" y2="41.6269" gradientUnits="userSpaceOnUse">
<stop stop-color="#9F7A05"/>
<stop offset="1" stop-color="#FFF57C"/>
</linearGradient>
<linearGradient id="paint13_linear_34_197" x1="19.1015" y1="41.6269" x2="494.047" y2="41.6269" gradientUnits="userSpaceOnUse">
<stop stop-color="#9F7A05"/>
<stop offset="1" stop-color="#FFF57C"/>
</linearGradient>
<linearGradient id="paint14_linear_34_197" x1="19.1015" y1="41.6269" x2="494.047" y2="41.6269" gradientUnits="userSpaceOnUse">
<stop stop-color="#9F7A05"/>
<stop offset="1" stop-color="#FFF57C"/>
</linearGradient>
<linearGradient id="paint15_linear_34_197" x1="19.1015" y1="41.6269" x2="494.047" y2="41.6269" gradientUnits="userSpaceOnUse">
<stop stop-color="#9F7A05"/>
<stop offset="1" stop-color="#FFF57C"/>
</linearGradient>
<linearGradient id="paint16_linear_34_197" x1="19.1015" y1="41.6269" x2="494.047" y2="41.6269" gradientUnits="userSpaceOnUse">
<stop stop-color="#9F7A05"/>
<stop offset="1" stop-color="#FFF57C"/>
</linearGradient>
<linearGradient id="paint17_linear_34_197" x1="19.1015" y1="41.6269" x2="494.047" y2="41.6269" gradientUnits="userSpaceOnUse">
<stop stop-color="#9F7A05"/>
<stop offset="1" stop-color="#FFF57C"/>
</linearGradient>
<linearGradient id="paint18_linear_34_197" x1="19.1015" y1="41.6269" x2="494.047" y2="41.6269" gradientUnits="userSpaceOnUse">
<stop stop-color="#9F7A05"/>
<stop offset="1" stop-color="#FFF57C"/>
</linearGradient>
<linearGradient id="paint19_linear_34_197" x1="19.1015" y1="41.6269" x2="494.047" y2="41.6269" gradientUnits="userSpaceOnUse">
<stop stop-color="#9F7A05"/>
<stop offset="1" stop-color="#FFF57C"/>
</linearGradient>
<linearGradient id="paint20_linear_34_197" x1="19.1015" y1="41.6269" x2="494.047" y2="41.6269" gradientUnits="userSpaceOnUse">
<stop stop-color="#9F7A05"/>
<stop offset="1" stop-color="#FFF57C"/>
</linearGradient>
</defs>
</svg>
